<?xml version="1.0" encoding="UTF-8"?>
<svg width="30px" height="30px" viewBox="0 0 30 30" version="1.1" xmlns="http://www.w3.org/2000/svg" xmlns:xlink="http://www.w3.org/1999/xlink">
    <!-- Generator: Sketch 51.2 (57519) - http://www.bohemiancoding.com/sketch -->
    <title>icon/toolbar/cart_n</title>
    <desc>Created with Sketch.</desc>
    <defs></defs>
    <g id="切图" stroke="none" stroke-width="1" fill="none" fill-rule="evenodd">
        <g id="icon/toolbar/cart_h">
            <g id="Group-Copy">
                <rect id="Rectangle-21" x="0" y="0" width="30" height="30"></rect>
                <path d="M4,4 L6.93843692,4 C7.2380486,4 7.45990498,4.18985625 7.60400606,4.56956876 L8.39344095,6.4 C18.523835,6.4 24.0005557,6.4 24.8236029,6.4 C25.6466502,6.4 25.9864561,6.80902294 25.8430205,7.62706881 L23.9047958,22 L7.12903223,22 L4.52150537,7 L2.5,7 C2.22385763,7 2,6.77614237 2,6.5 L2,4.5 C2,4.22385763 2.22385763,4 2.5,4 L4,4 Z M9,27 C7.8954305,27 7,26.1045695 7,25 C7,23.8954305 7.8954305,23 9,23 C10.1045695,23 11,23.8954305 11,25 C11,26.1045695 10.1045695,27 9,27 Z M22,27 C20.8954305,27 20,26.1045695 20,25 C20,23.8954305 20.8954305,23 22,23 C23.1045695,23 24,23.8954305 24,25 C24,26.1045695 23.1045695,27 22,27 Z" id="Combined-Shape-Copy" fill="#3581FF"></path>
            </g>
        </g>
    </g>
</svg>