<?xml version="1.0" encoding="UTF-8"?>
<svg width="30px" height="30px" viewBox="0 0 30 30" version="1.1" xmlns="http://www.w3.org/2000/svg" xmlns:xlink="http://www.w3.org/1999/xlink">
    <!-- Generator: Sketch 51.1 (57501) - http://www.bohemiancoding.com/sketch -->
    <title>icon/toolbar/profit_n</title>
    <desc>Created with Sketch.</desc>
    <defs></defs>
    <g id="img-res" stroke="none" stroke-width="1" fill="none" fill-rule="evenodd">
        <g id="icon/toolbar/profit_n">
            <g id="Group">
                <path d="M14.2403393,13.1189225 L10.3421676,16.9976304 L7.49511941,14.1647977 L4,17.6424658 L4,5 C4,4.44771525 4.44771525,4 5,4 L25,4 C25.5522847,4 26,4.44771525 26,5 L26,25 C26,25.5522847 25.5522847,26 25,26 L5,26 C4.44771525,26 4,25.5522847 4,25 L4,22.4271468 L7.48808294,18.9564801 L10.3421676,21.796314 L16.6456862,15.5242693 L18.736025,17.6146082 C18.792088,17.6706712 18.8635473,17.7088088 18.9413285,17.7241781 C19.158052,17.7670018 19.3684566,17.6260282 19.4112803,17.4093047 L20.9785514,9.47761536 C20.9886679,9.42641751 20.9886679,9.37373478 20.9785514,9.32253693 C20.9357277,9.10581342 20.7253231,8.96483979 20.5085996,9.00766352 L12.5769103,10.5749346 C12.4991291,10.5903039 12.4276698,10.6284415 12.3716068,10.6845045 C12.215397,10.8407142 12.215397,11.0939802 12.3716068,11.2501899 L14.2403393,13.1189225 Z" id="Combined-Shape" fill="#000000"></path>
                <rect id="Rectangle-22-Copy" x="0" y="0" width="30" height="30"></rect>
            </g>
        </g>
    </g>
</svg>