<?xml version="1.0" encoding="UTF-8"?>
<svg width="24px" height="24px" viewBox="0 0 24 24" version="1.1" xmlns="http://www.w3.org/2000/svg" xmlns:xlink="http://www.w3.org/1999/xlink">
    <!-- Generator: Sketch 51.1 (57501) - http://www.bohemiancoding.com/sketch -->
    <title>icon/light/ship</title>
    <desc>Created with Sketch.</desc>
    <defs>
        <rect id="path-1" x="0" y="0" width="24" height="24"></rect>
    </defs>
    <g id="img-res" stroke="none" stroke-width="1" fill="none" fill-rule="evenodd">
        <g id="icon/light/ship">
            <g id="Group-33">
                <g id="icon/light/ship">
                    <mask id="mask-2" fill="white">
                        <use xlink:href="#path-1"></use>
                    </mask>
                    <g id="Rectangle" opacity="0" fill-rule="nonzero"></g>
                    <path d="M4.35001165,16.8571429 L3,16.8571429 L3,13 L21,13 L21,16.8571429 L19.6499884,16.8571429 C19.3521717,15.3899884 18.0550444,14.2857143 16.5,14.2857143 C14.9449556,14.2857143 13.6478283,15.3899884 13.3500116,16.8571429 L10.6499884,16.8571429 C10.3521717,15.3899884 9.05504437,14.2857143 7.5,14.2857143 C5.94495563,14.2857143 4.64782829,15.3899884 4.35001165,16.8571429 Z M7.5,19.4285714 C6.43487941,19.4285714 5.57142857,18.5651206 5.57142857,17.5 C5.57142857,16.4348794 6.43487941,15.5714286 7.5,15.5714286 C8.56512059,15.5714286 9.42857143,16.4348794 9.42857143,17.5 C9.42857143,18.5651206 8.56512059,19.4285714 7.5,19.4285714 Z M16.5,19.4285714 C15.4348794,19.4285714 14.5714286,18.5651206 14.5714286,17.5 C14.5714286,16.4348794 15.4348794,15.5714286 16.5,15.5714286 C17.5651206,15.5714286 18.4285714,16.4348794 18.4285714,17.5 C18.4285714,18.5651206 17.5651206,19.4285714 16.5,19.4285714 Z M4,4 L13.5714286,4 C14.1237133,4 14.5714286,4.44771525 14.5714286,5 L14.5714286,11.7142857 L3,11.7142857 L3,5 C3,4.44771525 3.44771525,4 4,4 Z M15.8571429,5.28571429 L18,5.28571429 C19.6568542,5.28571429 21,6.62886004 21,8.28571429 L21,11.7142857 L15.8571429,11.7142857 L15.8571429,5.28571429 Z" id="Combined-Shape" fill="#000000" mask="url(#mask-2)"></path>
                </g>
            </g>
        </g>
    </g>
</svg>