<?xml version="1.0" encoding="UTF-8"?>
<svg width="18px" height="18px" viewBox="0 0 18 18" version="1.1" xmlns="http://www.w3.org/2000/svg" xmlns:xlink="http://www.w3.org/1999/xlink">
    <!-- Generator: Sketch 52.2 (67145) - http://www.bohemiancoding.com/sketch -->
    <title>Shape Copy</title>
    <desc>Created with Sketch.</desc>
    <g id="Page-1" stroke="none" stroke-width="1" fill="none" fill-rule="evenodd">
        <g id="下工单-选择维修点" transform="translate(-19.000000, -131.000000)" fill="#E6A23B" fill-rule="nonzero">
            <g id="Shape-Copy-2" transform="translate(19.000000, 131.000000)">
                <path d="M9,0 C4.04998835,0 0,4.05000777 0,9 C0,13.9499922 4.05000777,18 9,18 C13.9500117,18 18,13.9499922 18,9 C18,4.04998835 13.9499922,4.13954831e-16 9,4.13954831e-16 Z M9,15.4285659 C8.29287212,15.4285659 7.71428294,14.8499961 7.71428294,14.1428488 C7.71428294,13.4357209 8.2928527,12.8571318 9,12.8571318 C9.70712788,12.8571318 10.2857171,13.4357015 10.2857171,14.1428488 C10.2857171,14.8499767 9.7071473,15.4285659 9,15.4285659 Z M10.6714302,5.72141858 C10.6714302,5.72141858 10.6714302,5.78569764 10.6714302,5.72141858 C10.6714302,5.78569764 9.57856976,10.8642868 9.57856976,10.8642868 C9.57856976,10.8642868 9.64284882,10.4785736 9.57856976,10.8642868 C9.51429071,11.25 9.32143412,11.4428566 9,11.4428566 C8.67856588,11.4428566 8.48570929,11.1857209 8.42143024,10.8000078 C8.2928527,10.4142946 7.32856976,5.84999612 7.32856976,5.84999612 C7.32856976,5.84999612 7.32856976,5.84999612 7.32856976,5.84999612 C7.32856976,5.84999612 7.32856976,5.84999612 7.32856976,5.84999612 C7.32856976,5.84999612 7.32856976,5.84999612 7.32856976,5.84999612 C7.32856976,5.84999612 7.32856976,5.84999612 7.32856976,5.84999612 C7.32856976,5.84999612 7.32856976,5.84999612 7.32856976,5.84999612 C7.32856976,5.84999612 7.32856976,5.84999612 7.32856976,5.84999612 C7.32856976,5.84999612 7.32856976,5.84999612 7.32856976,5.84999612 C7.32856976,5.84999612 7.32856976,5.84999612 7.32856976,5.84999612 C7.32856976,5.72141858 7.26429071,5.59286047 7.26429071,5.528562 C7.26429071,4.56425964 8.03571706,3.7928527 9,3.7928527 C9.96430236,3.7928527 10.7357093,4.56427906 10.7357093,5.528562 C10.7357093,5.528562 10.6714302,5.65713953 10.6714302,5.72141858 Z" id="Shape-Copy"></path>
            </g>
        </g>
    </g>
</svg>